<svg xmlns="http://www.w3.org/2000/svg" viewBox="0 0 595.3 841.9"><path fill-rule="evenodd" clip-rule="evenodd" fill="#fff" d="M299.2 189.8c-129.5 0-234.5 105-234.5 234.5 0 103.6 67.2 191.5 160.4 222.5 11.7 2.2 16-5.1 16-11.3 0-5.6-.2-20.3-.3-39.9-65.2 14.2-79-31.4-79-31.4-10.7-27.1-26-34.3-26-34.3-21.3-14.6 1.6-14.3 1.6-14.3 23.5 1.7 35.9 24.2 35.9 24.2 20.9 35.8 54.9 25.5 68.3 19.5 2.1-15.2 8.2-25.5 14.9-31.4-52.1-5.9-106.8-26-106.8-115.9 0-25.6 9.1-46.5 24.1-62.9-2.4-5.9-10.5-29.8 2.3-62.1 0 0 19.7-6.3 64.5 24 18.7-5.2 38.8-7.8 58.7-7.9 19.9.1 40 2.7 58.7 7.9 44.8-30.3 64.4-24 64.4-24 12.8 32.3 4.7 56.1 2.3 62.1 15 16.4 24.1 37.3 24.1 62.9 0 90.1-54.8 109.9-107.1 115.7 8.4 7.2 15.9 21.6 15.9 43.4 0 31.4-.3 56.6-.3 64.3 0 6.3 4.2 13.6 16.1 11.3 93.1-31.1 160.3-118.9 160.3-222.5.1-129.4-104.9-234.4-234.5-234.4z"/></svg>