<?xml version="1.0" encoding="utf-8"?>
<!-- Generator: Adobe Illustrator 18.0.0, SVG Export Plug-In . SVG Version: 6.00 Build 0)  -->
<!DOCTYPE svg PUBLIC "-//W3C//DTD SVG 1.1//EN" "http://www.w3.org/Graphics/SVG/1.1/DTD/svg11.dtd">
<svg version="1.1" id="Слой_1" xmlns="http://www.w3.org/2000/svg" xmlns:xlink="http://www.w3.org/1999/xlink" x="0px" y="0px"
	 viewBox="0 0 153.4 194.2" enable-background="new 0 0 153.4 194.2" xml:space="preserve">
<path fill="#FFFFFF" d="M77.5,0.1L76.7,0L0,8v140.6l76.7,45.6l76.7-45.6V8L77.5,0.1z M143.4,142.9l-66.7,39.7L10,142.9V85.3
	l66.4,39.5l0.1,7.2L31,104.9l-0.1,7l45.7,27.5l0.1,7.3L31,119.4l-0.1,7l45.7,27.5h0l46.2-27.6v-7l-0.1,0v-2.4v-2.9V96.6l20.6-12.3
	V142.9z M143.3,76.8l-18.2,10.7h0l-8.4,5L76.5,68.7l-0.1,7L110.7,96l-0.3,0.2l-0.7,0.4l-4.9,2.9L76.5,82.7l-0.1,7l22.4,13.3
	l-5.3,3.5l-0.1,0.1l-16.9-10l-0.1,7l11.1,6.5l-11.3,6.8l-66-39.3l66.1-39.8v0L143.3,76.8z M143.4,69.9l-67-39.5v0l0,0l0,0v0L10,69.8
	V17.1l66.7-7l66.7,7V69.9z"/>
</svg>
